<svg id="Layer_1" data-name="Layer 1" xmlns="http://www.w3.org/2000/svg" xmlns:xlink="http://www.w3.org/1999/xlink" viewBox="0 0 699.08 182.8"><defs><style>.cls-1{fill:url(#linear-gradient);}</style><linearGradient id="linear-gradient" x1="629.92" y1="510.08" x2="1329" y2="510.08" gradientUnits="userSpaceOnUse"><stop offset="0" stop-color="#7f8c9a"/><stop offset="0.51" stop-color="#a8b1bb"/><stop offset="1" stop-color="#d3d7dc"/></linearGradient></defs><path class="cls-1" d="M738,418.68h31.6v182.8H738V526H661.52v75.47h-31.6V418.68h31.6v75.47H738Zm186.72,31.6H796v-31.6H924.75ZM903.07,526H796V494.15H903.07Zm21.68,75.47H796V569.89H924.75Zm58-31.59h97.15v31.59H951.12V418.68h31.6Zm155.12,31.59h-31.6V418.68h31.6Zm128-91.4,63.2,91.4h-38.65L1246.48,538l-43.88,63.45h-38.38l63.19-91.4-63.19-91.4h38.38l43.88,63.46,43.87-63.46H1329Z" transform="translate(-629.92 -418.68)"/></svg>