<svg id="HELIX_LANDING_PAGE" data-name="HELIX LANDING PAGE" xmlns="http://www.w3.org/2000/svg" xmlns:xlink="http://www.w3.org/1999/xlink" viewBox="0 0 3200 2000"><defs><style>.cls-1{fill:none;}.cls-2{fill:#032940;}.cls-3{fill:#ed985f;}.cls-4{fill:#233862;}.cls-5{fill:#ffb27d;}.cls-6{fill:#034275;}.cls-10,.cls-11,.cls-7{fill:#93c2d2;}.cls-7{opacity:0.61;}.cls-8{fill:#9e332e;}.cls-9{fill:#014375;}.cls-10{opacity:0.65;}.cls-12{fill:#b5453c;}.cls-13{fill:#044174;}.cls-14{fill:#fff;}.cls-15{fill:#adcbf9;}.cls-16{fill:#fcecdb;}.cls-17{fill:#99c7d7;}.cls-18{fill:#f4d2b8;}.cls-19{fill:#86d1cd;}.cls-20{fill:#2a4899;}.cls-21{fill:#f1a34f;}.cls-22{fill:#699dee;}.cls-23{fill:#80c1db;}.cls-24{fill:#e9f3fe;}.cls-25,.cls-31{fill:#afcdfb;}.cls-26{opacity:0.51;font-size:37.97px;font-family:Teko-SemiBold, Teko SemiBold;font-weight:600;}.cls-27{letter-spacing:-0.04em;}.cls-28{letter-spacing:-0.02em;}.cls-29{letter-spacing:-0.04em;}.cls-30{letter-spacing:-0.03em;}.cls-31{opacity:0.6;}.cls-32{fill:#606060;}.cls-33{fill:#e49963;}.cls-34{fill:#163560;}.cls-35{fill:#c8e0e8;}.cls-36{fill:#599dad;}.cls-37{fill:#6bb7bf;}.cls-38{fill:#5aa9ad;}.cls-39{fill:#015f5f;opacity:0.1;}.cls-40{fill:#d68d5d;}.cls-41{fill:#4a75cb;}.cls-42{fill:#2b478b;}.cls-43{fill:#f4a269;}.cls-44{fill:#c65447;}.cls-45{fill:#1c468a;}.cls-46{fill:#3758a4;opacity:0.49;}.cls-47{clip-path:url(#clip-path);}.cls-48{fill:#2c3a64;}.cls-49{fill:#bc3f3f;}.cls-50{fill:#a02e2e;}.cls-51{fill:#e8945b;}.cls-52{fill:#d35c2b;}.cls-53{fill:#097382;}.cls-54{fill:#356888;stroke:#0097c6;stroke-miterlimit:10;stroke-width:4px;}</style><clipPath id="clip-path"><polygon class="cls-1" points="1643.9 1156.73 1076.79 1156.73 1012.56 924.61 1007.64 906.82 1003.44 891.64 993.58 856.04 1552.53 856.04 1563.34 891.64 1567.95 906.82 1573.37 924.61 1643.9 1156.73"/></clipPath></defs><g id="ILLUSTRATE"><path id="BG" class="cls-2" d="M2655.66,1578.87S2953.55,1267.33,2706,930c-219.62-299.27-475.66-278.82-663.52-157.37-80,51.73-369.59,286.74-565.93-17.78C1208.84,339.6,339.63,311.1,508.85,950c81.89,309.19-327.81,320.43-159.09,629.5Z"/><g id="girl_2" data-name="girl 2"><path class="cls-3" d="M673.81,1159.61s-83.59,36.42-98.76,35.76-108.68-28.48-108.68-28.48l2.38,16.08s72.16,41.5,97.39,43.86c24.83,2.32,109.76-22.29,118-27.49S697.64,1164.87,673.81,1159.61Z"/><path class="cls-4" d="M686.37,1025.63s30.84-5.85,46.2,5.36c27.82,20.32,29.31,90.36,39.74,100.8s35.56,6,37.8,60-10,58.51,4.58,82.61-6.17,48.22-6.17,48.22,8.5-13.3,4.86-22.91c0,0-3.54,21.2-17,26.16s-15.45,8.61-17.6,15.9c0,0-114.87-58.86-115-100.61s-22.61-83.1-11.57-101.19c0,0-4.91,7.74-5.52,16.35,0,0-6.62-12.69,4.86-24.5s-13.47-36.26-9.77-64.58C644.31,1047.77,658,1026.48,686.37,1025.63Z"/><path class="cls-5" d="M663.65,1199.39a80.59,80.59,0,0,0,28.11,12c43.32,10,59.92-26.61,66.15-51.74a37.34,37.34,0,0,0-14.68-4.51c-3.13-.37-6.42-.61-9.15-.75-4.86-3.72-12.11-19-13.71-42.65l-2,.55-34.14,9.34s1.56,10.86,2.33,21.11c.59,8,.69,15.7-.83,17.58-2.67.58-4.27,1-4.27,1a.1.1,0,0,1,0,0A219.34,219.34,0,0,0,663.65,1199.39Z"/><path class="cls-3" d="M684.19,1121.6s1.57,10.84,2.33,21.11c19.34-1.94,28.32-20.35,31.81-30.45Z"/><path class="cls-5" d="M678.41,1131.79s45.91-2.54,43.9-31.1,2.54-48.13-26.85-47.72-34.32,11.71-36,21.41S666.42,1131.71,678.41,1131.79Z"/><path class="cls-4" d="M659.72,1058.4c6.47-9.1,12-7.6,15.15-5.23,24.08-15.58,41.69,3.63,41.69,3.63a54.66,54.66,0,0,0,20.16,31s-8,5.76-27.62,2.19c-6-1.09-11.54-4.9-16.37-9.65a107,107,0,0,0,20,21.16c-23.78-9-35.32-40.33-36.48-43.65-2.62,2.71-7.75,8.57-9,14-1.77,7.44-9.38,19.07-13.78,18.87C653.45,1090.72,650,1072,659.72,1058.4Z"/><path class="cls-6" d="M771,1292.73c4.14-21.2,17.66-105.87,4.14-133.12-4.85-9.79-23.9-10.67-44.8-9.81-6.51,4.2-31.29,20.06-41.47,18.08l-.57-.13c-4.79-1.2-6.6-4.57-2.6-7.47a91.05,91.05,0,0,0-23.21,1.42c-7.26,1.37-26.85,11.5-26.85,11.5s9.87,17.82,24.41,24c-2.47,22.12,1.2,31.88,24.15,83,19.39,43.19-2.61,82.08-2.61,82.08s114.15,91.78,114.79,45C796.84,1372.09,765.69,1319.82,771,1292.73Z"/><path class="cls-7" d="M675.92,1462a21.21,21.21,0,0,1-15.27-9.3l-1.77-2.65c-13-19.67-18-79.92-47.27-144.09-7.12-15.63-32.68-18.44-39.65-36.1,0,0-17.15-57.25,32.83-58.94S738.64,1370.23,740,1387.11C741.25,1403.47,773,1473,675.92,1462Z"/><path class="cls-8" d="M477.27,1460.7h71.14s2.66-11.34-2-19.06c-4.14-6.83-2.55-10.73.51-16.38a27.65,27.65,0,0,1-12,2.26c-3.54-.2-7.29-1.81-10.58-3.72-3.06,3.49-16.17,18.35-20.27,21.29C499.44,1448.43,478.71,1447.24,477.27,1460.7Z"/><path class="cls-9" d="M763.49,1181.81s9.26,84.23-50.79,101.88-77.08-77.5-28.6-84.35S763.49,1181.81,763.49,1181.81Z"/><path class="cls-10" d="M570.34,1227.49c-4.29,32.11-21,133.47-50.52,182.92-9.51,15.94,24,24.88,24.15,24.83,4.49-1.18,12-8.33,15.42-11.44,24-21.59,72.58-82.72,72.58-131.73,0-23.9.42-69.54-17-81.14C604.31,1203.79,572,1214.74,570.34,1227.49Z"/><path class="cls-11" d="M718.33,1460.7s-2.63-3.67-7.23-10.63c-5.47-8.29-11.52-24.6-18.87-45.5-7.71-21.94-16.87-48.94-28.3-77-3.53-8.67-7.28-17.45-11.27-26.21-7.12-15.63-26.7-13.47-33.67-31.13,0,0-27.19-61.23,22.79-62.92s144.94,163.8,150.4,179.82C798.16,1404.66,827.3,1477.51,718.33,1460.7Z"/><path class="cls-12" d="M529.49,1460.7h71.14s2.66-11.34-2-19.06c-4.14-6.83-2.55-10.73.51-16.38a27.65,27.65,0,0,1-12,2.26c-3.55-.2-7.29-1.81-10.58-3.72-3.06,3.49-16.17,18.35-20.27,21.29C551.65,1448.43,530.92,1447.24,529.49,1460.7Z"/><path class="cls-11" d="M692.23,1404.57c-7.71-21.94-16.87-48.94-28.3-77,3-21.28,9.43-39.9,20.26-47.41C684.19,1280.14,710.48,1361.58,692.23,1404.57Z"/><path class="cls-11" d="M611.86,1225.21c-4.28,32.12-10.32,135.75-39.82,185.2-9.51,15.94,24,24.88,24.15,24.83,4.49-1.18,12-8.33,15.42-11.44,23.95-21.59,72.58-82.72,72.58-131.73,0-23.9-28.05-67.62-45.42-79.22C628.06,1205.7,613.56,1212.46,611.86,1225.21Z"/><path class="cls-13" d="M457.88,1125.51l72.85-7.74a4.7,4.7,0,0,1,4.89,3l26.06,68.49a4.7,4.7,0,0,1-4.2,6.37l-72.29,2.92a4.7,4.7,0,0,1-4.53-2.89L454,1132A4.7,4.7,0,0,1,457.88,1125.51Z"/><path class="cls-13" d="M451.55,1126.17l72.85-7.74a4.71,4.71,0,0,1,4.89,3l26.06,68.48a4.69,4.69,0,0,1-4.2,6.37l-72.29,2.92a4.69,4.69,0,0,1-4.52-2.88l-26.63-63.67A4.7,4.7,0,0,1,451.55,1126.17Z"/><path class="cls-13" d="M491.93,1158.15c-.89-2.45.37-4.43,2.82-4.43a7,7,0,0,1,6,4.43c.89,2.44-.37,4.42-2.81,4.42A7,7,0,0,1,491.93,1158.15Z"/><path class="cls-13" d="M453.73,1132.64a1.47,1.47,0,0,1,1.38-2.17,3.45,3.45,0,0,1,3,2.17,1.47,1.47,0,0,1-1.38,2.18A3.46,3.46,0,0,1,453.73,1132.64Z"/><path class="cls-5" d="M757.91,1159.61S657,1196.79,641.78,1196c-9.81-.49-91.31-29.14-91.31-29.14s-6.05-9.3-12.62-11.24c0,0-11.59-5.32-14.9-6.31s-2.65,0-1.65,3.15c.51,1.63,2.36,3.22,4,4.51-5.56,1.53-11.06,3.6-13.63,4.09-4.3.83-16.55,4.81-12.91,10.77s20.53,7.28,27.82,6,16.55,2.91,16.55,2.91,79.33,51,101.14,50.73c43.05-.49,115.71-26.92,123.9-32.12S781.74,1164.87,757.91,1159.61Z"/><path class="cls-5" d="M459.05,1160.93s7.31-11.56,9.7-12c7.29-1.44,7.29,8.16,5.74,14.35-1.65,6.64-7.27,12.9-8.82,12.36S457.34,1167,459.05,1160.93Z"/><path class="cls-5" d="M458.78,1163.25s-2.34,13,10,19.72Z"/><path class="cls-14" d="M669.82,1115.36s4.34-1.72,16.55-.73c0,0-.65,4.77-9.65,5.24C671.61,1120.13,669.82,1115.36,669.82,1115.36Z"/><path class="cls-5" d="M705.89,1178s9,28.58,40.05,35.09c0,0,51.21-15.78,25.71-50.67C771.65,1162.37,746.44,1143.64,705.89,1178Z"/></g><path class="cls-15" d="M681.44,807.52c0-2.89.06-5.84.13-8.73a240.64,240.64,0,0,1,10.91-63.16c-5.39.2-10.59.52-15.6.84a246.21,246.21,0,0,0-9.5,53.4c-.38,5.39-.58,10.78-.64,16.24v1.41c0,5.46.19,10.91.51,16.31,4.94,2.31,10,4.49,15.34,6.67-.51-5.13-.9-10.33-1-15.53C681.5,812.46,681.44,810,681.44,807.52Zm471.13-98.4a253.21,253.21,0,0,0-331.4-134.59c-3.72,1.6-7.44,3.27-11,5-6,2.89-11.87,6-17.52,9.31a248.65,248.65,0,0,0-51.8,39.92c-3.27,3.21-6.42,6.55-9.5,10-3.85,4.23-7.51,8.66-11,13.15a252.77,252.77,0,0,0-15.66,22.41c-2.7,4.3-5.2,8.72-7.64,13.15-3.79,7-7.19,14.19-10.33,21.63-2.38,5.59-4.5,11.17-6.42,16.89-1.22,3.46-2.31,6.93-3.34,10.46a246.21,246.21,0,0,0-9.5,53.4c-.38,5.39-.58,10.78-.64,16.24v1.41c0,5.46.19,10.91.51,16.31.26,4.42.71,8.85,1.22,13.28a247.4,247.4,0,0,0,18.17,68.81,252.91,252.91,0,0,0,464.9,2.38c.32-.77.71-1.61,1-2.38,1.41-3.34,2.76-6.67,4-10a253.41,253.41,0,0,0-4-186.79Zm-13.35,190.77c-.07.13-.07.19-.13.32-1.61,3.72-3.28,7.44-5.07,11.1a238.34,238.34,0,0,1-433.9-11.1,234,234,0,0,1-15.92-56.74c-.71-4.3-1.22-8.6-1.61-13-.51-5.13-.9-10.33-1-15.53-.07-2.51-.13-4.94-.13-7.45,0-2.89.06-5.84.13-8.73a240.64,240.64,0,0,1,10.91-63.16c1.09-3.46,2.24-6.86,3.53-10.27s2.63-7.06,4.11-10.52c2.11-4.88,4.3-9.69,6.67-14.38,2.25-4.49,4.62-8.86,7.13-13.16a239.56,239.56,0,0,1,24-33.83q5.58-6.54,11.62-12.7c.58-.58,1.09-1.1,1.67-1.67a238.09,238.09,0,0,1,61.36-44.42c4.69-2.38,9.44-4.56,14.31-6.61,1.29-.58,2.64-1.09,3.92-1.61a238.34,238.34,0,0,1,308.42,313.43Z"/><path class="cls-15" d="M1199.62,858.49,1180,858c6.29,8.15,7.7,15.66,3.79,22s-13.29,11.81-27.28,15.86a160.74,160.74,0,0,1-17.33,4c-17.14,3.08-38.52,4.88-63.48,5.13-63.16.77-141.6-7.83-220.81-24.07C801.6,870,752.3,856.43,711,841.54c-6.29-2.25-12.39-4.56-18.23-6.87-3.47-1.34-6.87-2.76-10.21-4.17-5.32-2.18-10.4-4.36-15.34-6.67-3.46-1.54-6.8-3.15-10.07-4.75-45.51-22.21-66.31-43.65-57-58.86,7.51-12.33,34.85-20.67,76.7-23.75,5-.32,10.21-.64,15.6-.84,1.09-3.46,2.24-6.86,3.53-10.27-5.46.13-10.72.39-15.79.65-52.76,3.14-81,12.43-91.28,29.24-11.93,19.58,4.37,45.85,56.55,71.4,7.19,3.53,14.89,7,23,10.46,5.07,2.12,10.34,4.24,15.73,6.36l7.51,2.89c6.16,2.31,12.45,4.62,18.93,6.86,40.57,14.06,87.81,26.77,138.52,37.23C920.08,905,990.56,913.56,1050.83,915c8.86.26,17.46.26,25.8.19a458.12,458.12,0,0,0,57.39-3.85c6.22-.83,12.06-1.86,17.52-3,25.74-5.33,42.68-13.68,49.42-24.72C1205.65,876,1205.07,867.47,1199.62,858.49Z"/><path class="cls-15" d="M1091.57,852.23c-.25.45-.51.91-.79,1.35-7.74,12.29-25,18.64-49.34,18.63a200.38,200.38,0,0,1-39.38-4.4c-47.8-9.7-104.31-34-159.11-68.59-53.86-33.94-99.57-73.6-129-111.92-.52-.67-1-1.33-1.52-2q-4.18-5.56-7.82-10.95c-21.47-31.88-27.93-58.91-17.64-75.23,7.75-12.29,25-18.63,49.34-18.63a200.56,200.56,0,0,1,39.39,4.4q8.28,1.68,16.89,3.94,9.79,2.56,20,5.86,7.05-3.56,14.36-6.64c1.29-.55,2.59-1.08,3.89-1.6q-10.49-3.81-20.69-6.91c-10.87-3.32-21.47-6-31.69-8.11-51.58-10.47-88.19-3.23-103.06,20.37-14.16,22.46-6.45,56.26,21.65,95.69q2.14,3,4.45,6.08,2.59,3.43,5.34,6.86c30.46,38.07,75.86,77,128.84,110.4,56.17,35.39,114.31,60.41,163.7,70.43a213.66,213.66,0,0,0,42.08,4.68c29.46,0,50.56-8.51,61-25.05a43.88,43.88,0,0,0,4.19-8.67Z"/><path class="cls-15" d="M830.36,1039.3a25.12,25.12,0,0,1-8.58-1.48c-43.37-15.73-23.32-144.06,17.58-256.81,37.82-104.28,98.93-209.84,142.56-209.84a25.16,25.16,0,0,1,8.58,1.47c24.7,9,26.2,53.17,23.12,88.67-4.13,47.45-18.58,107.17-40.7,168.14C935.1,933.73,874,1039.3,830.36,1039.3ZM981.92,584.56c-27.45,0-84.94,76.85-130,201C830.22,845.49,816,904,812,950.31c-4.34,49.83,4.56,71.37,14.34,74.92a11.68,11.68,0,0,0,4,.68c27.44,0,84.94-76.86,130-201,21.73-59.91,35.91-118.42,39.94-164.74,4.33-49.83-4.57-71.37-14.34-74.91A11.49,11.49,0,0,0,981.92,584.56Z"/><path class="cls-15" d="M1089.1,761.56c-48.32,0-92.47-4.58-131.88-13.73-47.14-11-87.66-28.41-120.46-51.91-56.44-40.43-70.3-84.4-70.87-86.25l12.81-3.91c.13.42,13.54,42.16,66.8,79.94C895,720.81,989.93,759.6,1161.16,745l1.14,13.35Q1124.31,761.56,1089.1,761.56Z"/><path class="cls-15" d="M1041.59,1024.64c-93.69-69.74-186.22-101-247.34-114.87-66.06-15-110.29-13.62-110.73-13.6L683,882.78c1.87-.07,46.44-1.49,114.19,13.93,62.38,14.2,156.8,46,252.36,117.19Z"/><path class="cls-11" d="M2821.07,1522.07a52.89,52.89,0,0,1-52.87,52.87H2337.49V1472.41h433.94a50.18,50.18,0,0,1,8,.64A49.67,49.67,0,0,1,2821.07,1522.07Z"/><path class="cls-16" d="M2417.44,1523.1a51.66,51.66,0,0,1-15,36.5l-.16.16a51.67,51.67,0,0,1-36.64,15.18H1876.26V1472.41h490.5a50.69,50.69,0,0,1,50.68,50.69Z"/><path class="cls-17" d="M2458.11,1567.26a7.66,7.66,0,0,1-7.66,7.68H1858.83a7.67,7.67,0,1,1,0-15.34h591.62A7.66,7.66,0,0,1,2458.11,1567.26Z"/><path class="cls-11" d="M2458.11,1480.08a7.66,7.66,0,0,1-7.66,7.67H1858.83a7.67,7.67,0,1,1,0-15.34h591.62A7.67,7.67,0,0,1,2458.11,1480.08Z"/><polygon class="cls-18" points="1876.26 1523.67 1941.87 1525.4 1876.26 1526.43 1876.26 1523.67"/><polygon class="cls-18" points="1876.26 1539.76 2032.36 1541.48 1876.26 1542.52 1876.26 1539.76"/><path class="cls-17" d="M2779.42,1473.05,2637.8,1574.94H2337.49V1472.41h433.94A50.18,50.18,0,0,1,2779.42,1473.05Z"/><path class="cls-19" d="M789.36,1454.38h299.45a49.6,49.6,0,0,1,49.6,49.6v18.13a52.82,52.82,0,0,1-52.82,52.82H789.36a0,0,0,0,1,0,0V1454.38A0,0,0,0,1,789.36,1454.38Z"/><path class="cls-16" d="M456.46,1454.38H798.87a48.2,48.2,0,0,1,48.2,48.2v23.05a49.3,49.3,0,0,1-49.3,49.3H456.46a0,0,0,0,1,0,0V1454.38a0,0,0,0,1,0,0Z"/><rect class="cls-19" x="438.34" y="1556.91" width="438.09" height="18.03" rx="7.66"/><rect class="cls-19" x="438.34" y="1454.38" width="438.09" height="18.03" rx="7.66"/><polygon class="cls-18" points="456.46 1514.66 503.82 1516.69 456.46 1517.91 456.46 1514.66"/><polygon class="cls-18" points="456.46 1533.57 569.13 1535.6 456.46 1536.82 456.46 1533.57"/><path class="cls-20" d="M1252.51,1020.28l-44,522.86s-4.61,31.7,19,31.75c38.76.1,192.93,0,192.93,0s-29.17-6.59-28.82-21.44c.42-17.5,51.4-538.12,51.4-538.12Z"/><path class="cls-20" d="M1433,1565.41c-7.62,0-154.88.48-192.62,0-16.46-.21-19.34-14.63-19.48-24a47.87,47.87,0,0,1,.5-7.79l1.15-13.59,2.91-34.64,2.57-30.6,3.31-39.32,2.79-33.19,31.24-371.53,190.51-4.95s-21.47,217.88-36.66,376.48c-1.69,17.67-3.3,34.61-4.8,50.43q-.72,7.57-1.4,14.79c-1.4,15-2.69,28.79-3.81,41q-.89,9.63-1.63,17.83c-1.94,21.39-3.07,35-3.09,37.65a21.77,21.77,0,0,0,.37,4.23C1407.94,1564.86,1430.09,1565.41,1433,1565.41Z"/><polygon class="cls-20" points="789.86 735.76 896.97 1166.01 911.63 1224.93 961.52 1425.33 1888.36 1425.33 1704.48 735.76 789.86 735.76"/><polygon class="cls-20" points="789.85 735.76 775.01 740.71 941.79 1440.3 961.52 1425.33 789.85 735.76"/><polygon class="cls-20" points="941.79 1440.3 1862.92 1440.3 1888.36 1425.33 961.52 1425.33 941.79 1440.3"/><rect class="cls-20" x="1265.26" y="1565.62" width="199.44" height="9.48" transform="translate(2729.97 3140.71) rotate(180)"/><polygon class="cls-21" points="1843.46 1298.27 1693.07 744.87 788.37 744.87 788.37 735.76 1704.48 735.76 1854.37 1297.04 1843.46 1298.27"/><polygon class="cls-20" points="1414 1440.3 1412.97 1447.54 1225.41 1485.43 1227.98 1454.83 1229.21 1440.3 1414 1440.3"/><path class="cls-20" d="M1433,1565.41c-7.62,0-154.88.48-192.62,0-16.46-.21-19.34-14.63-19.48-24l186.68-35.13c-1.94,21.39-3.07,35-3.09,37.65a21.77,21.77,0,0,0,.37,4.23C1407.94,1564.86,1430.09,1565.41,1433,1565.41Z"/><polygon class="cls-20" points="1368.67 1285.74 961.52 1425.33 911.63 1224.93 1368.67 1285.74"/><polygon class="cls-22" points="789.85 735.76 1704.48 735.76 1852.88 1289.96 923.11 1289.96 789.85 735.76"/><path class="cls-23" d="M1449.51,1360c-2.64-13.6-15.8-24.61-29.39-24.61s-22.47,11-19.83,24.61,15.81,24.61,29.4,24.61S1452.16,1373.61,1449.51,1360Z"/><polygon class="cls-24" points="1809.75 1265.94 953.38 1265.94 856.39 879.6 848.96 849.97 842.62 824.7 827.74 765.44 1671.77 765.44 1688.1 824.7 1695.07 849.97 1703.23 879.6 1809.75 1265.94"/><polygon class="cls-25" points="1688.1 824.7 842.62 824.7 827.74 765.44 1671.77 765.44 1688.1 824.7"/><path class="cls-24" d="M862.66,792.22c-1-4.09,1.47-7.4,5.56-7.4a10.11,10.11,0,0,1,9.25,7.4c1,4.09-1.47,7.41-5.56,7.41A10.12,10.12,0,0,1,862.66,792.22Z"/><path class="cls-24" d="M887.27,792.22c-1-4.09,1.47-7.4,5.56-7.4a10.12,10.12,0,0,1,9.26,7.4c1,4.09-1.47,7.41-5.57,7.41A10.12,10.12,0,0,1,887.27,792.22Z"/><path class="cls-24" d="M913.77,792.22c-1-4.09,1.47-7.4,5.56-7.4a10.12,10.12,0,0,1,9.26,7.4c1,4.09-1.47,7.41-5.56,7.41A10.13,10.13,0,0,1,913.77,792.22Z"/><text id="HEAD_TEXT" data-name="HEAD TEXT" class="cls-26" transform="matrix(1.13, -0.01, 0.01, 1, 1144.8, 811.44)">WE<tspan class="cls-27" x="50.81" y="0">L</tspan><tspan class="cls-28" x="67.25" y="0">C</tspan><tspan x="88.48" y="0">OME</tspan><tspan class="cls-29" x="163.85" y="0"> </tspan><tspan class="cls-30" x="170.34" y="0">T</tspan><tspan x="188.19" y="0">O HELIX</tspan></text><path class="cls-22" d="M971.78,1206.93c0-17.09,14.31-31,32-31s32,13.86,32,31-14.31,31-32,31S971.78,1224,971.78,1206.93Z"/><path class="cls-24" d="M1001.18,1188.69l18.36,15.88a3.41,3.41,0,0,1,0,5.23l-18,15.23a3.62,3.62,0,0,1-6-2.59l-.32-31.12A3.62,3.62,0,0,1,1001.18,1188.69Z"/><path class="cls-25" d="M1724.48,1210.51a5.86,5.86,0,0,1-5.83,5.83H1066.3a5.84,5.84,0,0,1,0-11.67h652.35A5.85,5.85,0,0,1,1724.48,1210.51Z"/><path class="cls-22" d="M1317.14,1204.67v11.67H1079.55c-10.49,0-19.08-2.63-19.08-5.83,0-1.6,2.15-3.06,5.61-4.12a47.94,47.94,0,0,1,13.47-1.72Z"/><polygon class="cls-25" points="1643.9 1156.73 1076.79 1156.73 1012.56 924.61 1007.64 906.82 1003.44 891.64 993.58 856.04 1552.53 856.04 1563.34 891.64 1567.95 906.82 1573.37 924.61 1643.9 1156.73"/><polygon class="cls-24" points="1557.19 984.82 1370.73 984.82 1349.61 908.5 1347.99 902.65 1346.62 897.66 1343.37 885.96 1527.15 885.96 1530.7 897.66 1532.22 902.65 1534 908.5 1557.19 984.82"/><polygon class="cls-31" points="1447.46 965.91 1382.81 965.91 1375.49 939.44 1374.92 937.42 1374.45 935.68 1373.32 931.63 1437.04 931.63 1438.28 935.68 1438.8 937.42 1439.42 939.44 1447.46 965.91"/><polygon class="cls-31" points="1529.77 965.91 1465.12 965.91 1457.79 939.44 1457.23 937.42 1456.75 935.68 1455.63 931.63 1519.35 931.63 1520.58 935.68 1521.11 937.42 1521.73 939.44 1529.77 965.91"/><path class="cls-25" d="M1483.44,900.49H1365.28a1.69,1.69,0,0,1-1.68-1.69h0a1.69,1.69,0,0,1,1.68-1.68h118.16a1.68,1.68,0,0,1,1.68,1.68h0A1.69,1.69,0,0,1,1483.44,900.49Z"/><path class="cls-25" d="M1487.82,909.58H1369.66a1.69,1.69,0,0,1-1.68-1.69h0a1.68,1.68,0,0,1,1.68-1.68h118.16a1.69,1.69,0,0,1,1.68,1.68h0A1.69,1.69,0,0,1,1487.82,909.58Z"/><path class="cls-25" d="M1508.25,922.78h-133a1.9,1.9,0,0,1-1.9-1.89h0a1.91,1.91,0,0,1,1.9-1.9h133a1.9,1.9,0,0,1,1.89,1.9h0A1.89,1.89,0,0,1,1508.25,922.78Z"/><polygon class="cls-24" points="1592.03 1104.16 1405.57 1104.16 1384.45 1027.84 1382.84 1021.99 1381.46 1017 1378.22 1005.3 1561.99 1005.3 1565.55 1017 1567.06 1021.99 1568.84 1027.84 1592.03 1104.16"/><polygon class="cls-31" points="1482.3 1085.25 1417.65 1085.25 1410.33 1058.78 1409.77 1056.76 1409.29 1055.03 1408.16 1050.97 1471.88 1050.97 1473.12 1055.03 1473.64 1056.76 1474.26 1058.78 1482.3 1085.25"/><polygon class="cls-31" points="1564.61 1085.25 1499.96 1085.25 1492.63 1058.78 1492.07 1056.76 1491.6 1055.03 1490.47 1050.97 1554.19 1050.97 1555.42 1055.03 1555.95 1056.76 1556.57 1058.78 1564.61 1085.25"/><path class="cls-25" d="M1518.28,1019.83H1400.12a1.69,1.69,0,0,1-1.68-1.69h0a1.69,1.69,0,0,1,1.68-1.68h118.16a1.68,1.68,0,0,1,1.68,1.68h0A1.69,1.69,0,0,1,1518.28,1019.83Z"/><path class="cls-25" d="M1522.66,1028.92H1404.5a1.69,1.69,0,0,1-1.68-1.69h0a1.68,1.68,0,0,1,1.68-1.68h118.16a1.69,1.69,0,0,1,1.68,1.68h0A1.69,1.69,0,0,1,1522.66,1028.92Z"/><path class="cls-25" d="M1525.86,1038H1407.7a1.69,1.69,0,0,1-1.69-1.68h0a1.69,1.69,0,0,1,1.69-1.68h118.16a1.69,1.69,0,0,1,1.68,1.68h0A1.68,1.68,0,0,1,1525.86,1038Z"/><path class="cls-32" d="M665.81,1516.85s-10.31,4.94-13.72,13.07a13.41,13.41,0,0,0-1.07,4.55c-.56,10.8,0,35.25,0,35.25l-30.41-12.23-30.34,12.23v-33.14a21.16,21.16,0,0,1,7.44-16.35,13.29,13.29,0,0,1,8.4-3.38Z"/><path class="cls-32" d="M665.81,1516.85s-10.31,4.94-13.72,13.07l-61,.48s2.39-11.64,15-13.55Z"/><path class="cls-22" d="M2022.12,1317.34h364.49a66.78,66.78,0,0,1,66.78,66.78v26.48a62.71,62.71,0,0,1-62.71,62.71H2022.12a0,0,0,0,1,0,0v-156A0,0,0,0,1,2022.12,1317.34Z" transform="translate(4475.52 2790.66) rotate(180)"/><path class="cls-24" d="M2382.08,1317.34h420.31a62.33,62.33,0,0,1,62.33,62.33v32.7a60.95,60.95,0,0,1-60.95,60.95H2382.08a0,0,0,0,1,0,0v-156a0,0,0,0,1,0,0Z" transform="translate(5246.8 2790.66) rotate(-180)"/><rect class="cls-22" x="2345.82" y="1449.99" width="541.29" height="23.33" rx="9.68" transform="translate(5232.92 2923.31) rotate(-180)"/><rect class="cls-22" x="2345.82" y="1317.34" width="541.29" height="23.33" rx="9.68" transform="translate(5232.92 2658.01) rotate(-180)"/><polygon class="cls-22" points="2864.72 1395.33 2806.21 1397.95 2864.72 1399.53 2864.72 1395.33"/><polygon class="cls-22" points="2864.72 1359.43 2725.51 1362.06 2864.72 1363.64 2864.72 1359.43"/><path class="cls-32" d="M2727,1361.54s7.15,4.94,9.52,13.07a18,18,0,0,1,.74,4.55c.4,10.8,0,35.25,0,35.25l21.13-12.23,21.08,12.23v-33.14c0-6.26-1.81-12.36-5.17-16.35-1.62-1.93-3.6-3.38-5.83-3.38Z"/><path class="cls-32" d="M2727,1361.54s7.15,4.94,9.52,13.07l42.35.49s-1.67-11.65-10.4-13.56Z"/><path class="cls-33" d="M1976.23,1143s-19.37,11-24.79,11-26.72-4.11-32.65-1.08-16.67,15.23-18.69,19.22c-3.62,7.16,14.59,4,23.2-2.11a5.43,5.43,0,0,1,4.3-.88c4.46,1,13.72,2.65,18.19,1,6-2.23,37.7-4.7,37.7-4.7Z"/><path class="cls-34" d="M1954.33,1540.9s-2.08,33.65-8.59,34.13c-.87.06-33,.06-33,.06l-41-.23s.27-9.89,12.26-12,32.07-10.52,39.34-26.38C1930.94,1519.82,1954.33,1540.9,1954.33,1540.9Z"/><path class="cls-35" d="M2123.63,993s-20.08,142.74-53.34,155.52c-16.41,6.31-88.93,20.61-110.38,22,0,0-5.25-4.27-4-21.62,0,0,76-27.89,86.77-43.06,16.06-22.58-10-92.23,10.18-113.43S2107,962.13,2123.63,993Z"/><path class="cls-36" d="M2116.86,1293.71a249.65,249.65,0,0,1-19.62,28.07c-21.58,27.25-45.08,49.72-49.17,71a95.61,95.61,0,0,1-3.8,13.59c-1.71,4.86-3.82,10-6.26,15.27-9.16,19.89-22.85,42.19-36.53,62.45-23.64,35-45.87,64.27-45.87,64.27l-40.78-1.74c1.64-4.09,19.42-52.46,43.21-111.57l29.84-74.14q2-4.93,3.95-9.8c3-7.54,6-15,8.92-22.17,22.33-55.51,40.13-99.71,40.13-99.71s89.27-33.81,98.54-11.9C2147.06,1235.36,2140.84,1253.06,2116.86,1293.71Z"/><path class="cls-34" d="M2048.74,1444.79s28.36,18.22,25.6,24.14c-.36.79-16,28.86-16,28.86l-20.22,35.71s-8.5-5-4.48-16.54,6.45-33.14-3.85-47.21C2018.93,1454.94,2048.74,1444.79,2048.74,1444.79Z"/><path class="cls-37" d="M2034.86,1476.82s17.73-15.63,20.85-27.1c0,0-73-87.5-88.87-107.11-.72-.9-.54-1.89.42-3,12-13.48,144.83-40.9,162.2-67.91a83.76,83.76,0,0,0,11.22-25.87c3.94-16.49.82-27.88.82-27.88l-132.7-3.84s-110.48,68.8-123,115.71S2034.86,1476.82,2034.86,1476.82Z"/><path class="cls-38" d="M1967.26,1339.64c12-13.48,144.83-40.9,162.2-67.91a83.76,83.76,0,0,0,11.22-25.87v-16.8l-56.4-8.87s-16,49.22-63.36,67.67C1976.55,1305.15,1968.15,1335.82,1967.26,1339.64Z"/><path class="cls-33" d="M2045.12,984c26.84,6.94,71.34-17.93,71.34-17.93s-17.28-11.61-23.68-37.12c-.33-1.29-.61-2.61-.88-4l-13.79-2.92-20.5,18.37a177.14,177.14,0,0,0,3,20.73c.45,2.29,1,4.75,1.55,7.36A63.22,63.22,0,0,0,2045.12,984Z"/><path class="cls-23" d="M2144.89,1095.27c-3.85,51.72,1.21,130.37-3.15,144-3.77,11.76-46.66,4.77-63.78.85-6.34-1.46-14-3.53-21.94-6-22.12-6.85-46.21-16.63-48.8-23.89a6.9,6.9,0,0,1-.23-.83,6.63,6.63,0,0,1,0-3c.86-3.7,4.18-7.71,4.58-16.87.43-10.23.37-22.27.75-35.22,0-1.46,0-3,.2-4.5v-.53c0-.28,0-.55,0-.83.37-14.45,1.12-29.63,2-44.69.56-9.46,1.2-18.83,1.94-27.8,1.93-23.17,4.53-43.77,8-56.8,5.62-21.23,18-35.08,29.3-45.22l8.16-7c9.1,2,19.87.67,29.61-3.95,10.54-5,14.18-8.59,16-7.24C2131.92,974.5,2149.43,1032.05,2144.89,1095.27Z"/><path class="cls-39" d="M2056,1234.13c-22.12-6.85-46.21-16.63-48.8-23.89a6.9,6.9,0,0,1-.23-.83c0-1,0-2,0-3,.86-3.7,4.18-7.71,4.58-16.87.43-10.23.37-22.27.75-35.22,0-1.46,0-3,.2-4.5v-.53c0-.28,0-.55,0-.83l89.39-113.9S2162.08,1159.66,2056,1234.13Z"/><path class="cls-40" d="M2057.61,940.43a177.14,177.14,0,0,0,3,20.73c20-6.47,29.11-24.55,32.14-32.22-.33-1.29-.61-2.61-.88-4l-13.79-2.92Z"/><path class="cls-33" d="M2054.92,952s43.66-7.29,38.71-34.41-2.66-46.33-30.75-42.83-31.6,14.85-32.15,24.3S2043.43,953.19,2054.92,952Z"/><rect class="cls-41" x="1862.71" y="1081.26" width="4.05" height="106.02" transform="translate(-259.25 631.78) rotate(-18)"/><rect class="cls-41" x="1879.1" y="1177.47" width="111.25" height="6.66" transform="translate(-24.78 41.59) rotate(-1.22)"/><path class="cls-33" d="M1988.19,1188.25s-35.74,9.42-49.15,8.43-24.54-7.36-26.23-10.69-5.23-9.23,3.9-8.14,21.58,3,22,1.28-7.44-1.59-7.44-1.59-2.36-3.44.62-3.56,11.66-2.49,14.89-.87,6.2,7.57,8.56,7.32,29.91-12.41,29.91-12.41Z"/><path class="cls-35" d="M2114.77,998.85s-4.23,144.08-35.87,160.45c-15.61,8.08-86.11,30.29-107.28,34.08,0,0-5.69-3.66-6.33-21,0,0,72.44-36.1,81.5-52.37,13.47-24.21-20.08-90.57-2.39-113.87S2094.84,970,2114.77,998.85Z"/><path class="cls-42" d="M2092.78,928.94s.5-9.31-5.24-14.64c0,0,2-9.33-1.69-10.87s-4.46,6.31-6.15,5.08-9.23-7.08-12.46-15.69-32.79,1.82-36.24,3.37-14.51-4.14-16.67-8.75c0,0,6.15-4.93,8.92-8.62s22.15-28.6,49.22-21.53,30.76,20,29.22,31.07S2103.87,925.22,2092.78,928.94Z"/><path class="cls-43" d="M2386.27,1048.51s13.86,20.51,21.76,63.63c6.93,37.76,13,51.71,23,59.45s65.7,30.61,65.7,30.61l-4.16,9.76s-81.65-11.12-90.83-24.77-44.13-94.27-41.42-112.84S2386.27,1048.51,2386.27,1048.51Z"/><path class="cls-5" d="M2586.21,1499c-.73,8,10.36,9.9,23.2,10.54s9,3.27,26.55,6.45,24.65-1.63,25.93-4c1.13-2.11-7-5.41-15.77-9.14l-3.29-1.43c-9.82-4.31-15.32-13.11-23-21.27-7.25-7.73-14.13-32.47-14.13-32.47l-23.91-5.11s6.71,22.27,9,31.78c1.37,5.59-.65,11.84-2.45,16.6A31.8,31.8,0,0,0,2586.21,1499Z"/><path class="cls-44" d="M2609.41,1509.49c12.84.64,9,3.27,26.55,6.45s24.65-1.63,25.93-4c1.13-2.11-7-5.41-15.77-9.14l-.14.15a50.12,50.12,0,0,1-26.65.32c-11.64-3.16-22.9-10.12-30.92-12.37a31.8,31.8,0,0,0-2.2,8C2585.48,1506.91,2596.57,1508.85,2609.41,1509.49Z"/><path class="cls-34" d="M2348.09,1215.38s158.9-12,188.82,6.93,77.89,238.78,77.89,238.78-3,2.38-9.58,3.09c-6.15.67-19.69-3-19.69-3s-69-98.39-73.81-123.18-3.67-46.91-14.73-47.5-148.92,16.76-169.77-20-3.62-73.1-3.62-73.1Z"/><path class="cls-5" d="M2525.41,1524.47c-.73,8,10.35,9.9,23.19,10.54s9,3.27,26.56,6.45,24.65-1.62,25.92-4c1.14-2.11-7-5.41-15.76-9.14-1.1-.46-2.2-.94-3.3-1.42-9.81-4.32-15.31-13.12-23-21.28-7.24-7.73-14.12-32.47-14.12-32.47L2521,1468s6.72,22.27,9,31.78c1.37,5.59-.65,11.85-2.45,16.6A31.39,31.39,0,0,0,2525.41,1524.47Z"/><path class="cls-44" d="M2548.6,1535c12.85.64,9,3.27,26.56,6.45s24.65-1.62,25.92-4c1.14-2.11-7-5.41-15.76-9.14l-.14.15a50.12,50.12,0,0,1-26.65.32c-11.64-3.16-22.9-10.12-30.92-12.37a31.39,31.39,0,0,0-2.2,8C2524.68,1532.43,2535.76,1534.37,2548.6,1535Z"/><path class="cls-45" d="M2317,1225.23s141.16,6.68,170.31,26.71,68.54,241.64,68.54,241.64-3.05,2.26-9.69,2.72c-6.17.42-19.56-3.72-19.56-3.72s-65.07-101-69-126-1.84-47-12.87-48-149.46,11-168.86-26.57S2317,1225.23,2317,1225.23Z"/><path class="cls-12" d="M2367.27,914.61c-6.26-4.14-14-5.06-19.52-5.1a9.21,9.21,0,0,1,4.3-1.7c-3.35-.73-11.13,2.12-11.13,2.12-45.86-21.27-57.88,47.54-58,63.71s-1.21,34.71-25.67,47.59c-48.13,25.33-12.43,77.54-12.43,77.54.35.24,32.08,42.25,32.08,42.25-.32-13.1,51.33-82.49,84-101,8.37-10.72,12.41-30.37,12.71-31.92-2.36,15.64-5.64,24.28-8.37,29.09C2393.45,1014.57,2383.87,925.57,2367.27,914.61Z"/><path class="cls-5" d="M2311,1024.89a158.72,158.72,0,0,1,26.29,0,84.29,84.29,0,0,1,22.81,5.72c12.44,5.2,11.14,27.23-15,23.15S2309.21,1031.42,2311,1024.89Z"/><path class="cls-5" d="M2359,1041c.15.08,3.72,19-13.37,18.19-11.22-.49-35.42-14.07-33.28-23.68,1-4.56,9.49-16.41,11.2-43.46l2,.55,34.34,9.21s-1.52,10.9-2.23,21.22C2357.14,1031.64,2357.12,1039.89,2359,1041Z"/><path class="cls-43" d="M2360,1001.76s-1.52,10.9-2.23,21.22c-19.44-1.85-28.55-20.3-32.11-30.43Z"/><path class="cls-12" d="M2322.29,988.52s-9.13-16.81-10.66-30.76c-1.1-10,6.35-46.12,42.67-38.42a49.93,49.93,0,0,1,20.14,9.19c7.6,5.91,18.32,18.28,3.35,49.27l-4.05,10.54Z"/><path class="cls-5" d="M2365.83,1012s-46.13-2.31-44.25-31-2.81-48.34,26.73-48.08,34.53,11.59,36.23,21.33S2377.88,1011.83,2365.83,1012Z"/><path class="cls-12" d="M2369.34,933.57s-14.86,32.83-34.55,36.52S2307,968,2307,968a54.94,54.94,0,0,0,20.09-31.2S2360.89,916.91,2369.34,933.57Z"/><path class="cls-12" d="M2366,936.1s8.92,8.14,10.73,15.6,1.84,22.58,6.26,22.36c0,0,11-22.25,1.21-35.91C2373.82,923.66,2366,936.1,2366,936.1Z"/><path class="cls-9" d="M2412,1217.78c-3.73,4.47-15.39,5.84-27.84,7.89-9.81,1.62-20.1,3.65-27.43,7.95-16.63,9.76-71,42.76-86.88,41.25-6.17-.58-5-12.36-1.28-28,5.89-24.69,18.21-59,18.21-73.9,0-8.14,2.71-27.4,6.32-49.42q.45-2.65.9-5.37c7.15-42.81,17.06-93.29,17.06-93.29s11,24.11,32.58,24.11,16.52-18.39,16.52-18.39,19.64,2.31,24.28,7.31,16.42,26.61,18.75,32.5c0,0,.48,7.5-18.09,11.07,0,0,4.52,20.36,5.06,33.92.4,10-6.84,41.4-8.92,60.91-.74,6.91-.84,12.34.29,14.8,1.43,3.15,6.08,6.29,11.36,9.37C2403.37,1206.6,2416.41,1212.48,2412,1217.78Z"/><path class="cls-46" d="M2392.87,1200.49c11.92,20.32-32.31,26.42-39.64,30.72-16.62,9.77-67.48,45.17-83.4,43.66-6.17-.58-5-12.36-1.28-28,5.89-24.69,18.21-59,18.21-73.9,0-8.14,2.71-27.4,6.32-49.42l19.17-18.4s20.54,53.08,40.12,61.78a163.56,163.56,0,0,0,28.85,9.39c-.74,6.91-.84,12.34.29,14.8C2382.94,1194.27,2387.59,1197.41,2392.87,1200.49Z"/><rect class="cls-8" x="2416.94" y="1215.55" width="44.46" height="5.25"/><path class="cls-8" d="M2452,1220.09c.44-1.74,40.87-65.23,40.87-65.23h90l-45.12,63.52Z"/><path class="cls-12" d="M2455.74,1220.81c.43-1.74,41-66,41-66h86.05l-42.93,66Z"/><path class="cls-8" d="M2531.59,1188.05a7.19,7.19,0,0,1-6.26,4.65c-2.58,0-3.94-2.08-3.06-4.65a7.18,7.18,0,0,1,6.27-4.66C2531.11,1183.39,2532.47,1185.47,2531.59,1188.05Z"/><path class="cls-5" d="M2430.14,1193c-2.53-1.08-22,2.47-27.57,3.51-17.65-3.46-75.66-15-78.49-18.68-3.33-4.29-10.6-134.85-18.93-137,0,0-16.39-10-32.24,8.93s11.26,153.83,34.74,160.77c26.08,7.7,101.42-1.23,101.42-1.23h0c6.19,2.12,17,3.31,22.75,5.22,7.58,2.53,14.32.42,16-2.53S2433.09,1194.25,2430.14,1193Z"/><path class="cls-9" d="M2311,1024.89s-33.66,3-43.43,14.1-12.64,41.07-12.64,41.07,29.64,23.93,65.35,14.64Z"/><g class="cls-47"><path class="cls-5" d="M1306.48,961.77s3.14-12.44,8.39-13.1,13.13-4,14.78.2-12.53,25.82-18.18,20.48S1306.48,961.77,1306.48,961.77Z"/><path class="cls-34" d="M1250.42,1377.86s5.91,6.67,8.08,14.42a2.3,2.3,0,0,1-2.28,3.12h-25.71a5.25,5.25,0,0,1-5-4.75c-.06-4.71.6-11.82,4.57-16.14C1236.44,1367.62,1250.42,1377.86,1250.42,1377.86Z"/><path class="cls-34" d="M1289.27,1371s7.87,23.84,12.57,24.18c.62,0,23.4,0,23.4,0h29.39a14.3,14.3,0,0,0-11.32-8.66c-8.89-1.48-24.72-7.45-32.88-18.69C1301.85,1356.09,1289.27,1371,1289.27,1371Z"/><path class="cls-48" d="M1237.5,1223.76c4.58,13.25,7.51,23.7,7.48,28.66-.12,22.17,43.7,122.28,43.7,122.28,14.13,6,30.3-.06,30.3-.06-4.8-13.87-31.47-138-45.63-213.75-5.95-31.79-10-54-10-54l-77.39-8.74S1221.62,1177.77,1237.5,1223.76Z"/><path class="cls-48" d="M1186,1098.11s35.64,79.66,51.52,125.65l35.85-62.87c-5.95-31.79-10-54-10-54Z"/><path class="cls-48" d="M1227.34,1115.1s21.29,221.19,26.23,264c0,0-13.16,4-29.34-2.18,0,0-29.42-102.79-32.74-133.75s-36.6-126.68-31-135.58S1227.34,1115.1,1227.34,1115.1Z"/><path class="cls-5" d="M1172.89,926.48s8.18,19.66,8.48,25.53-18.38,9.06-27.85,4.21-8-9.17-8-9.17-4.31-20-3.6-21.59S1172.89,926.48,1172.89,926.48Z"/><path class="cls-49" d="M1304.28,959.48s-33.44,41.57-34.82,46.93c-19.2-22.38-48.73-50.43-50.07-51.52-3.78-3.08-10.57-4.94-17.44-6.08a150.29,150.29,0,0,0-21.16-1.76c-.31,0-.48,0-.47,0,.88,3.31-2.72,9.45-10.65,10-9.4.61-22.65-4.48-24.13-10-.07-.28-22,1.1-18.18,42.12a16.26,16.26,0,0,0,.2,1.77c1.48,13.77,5.81,31.79,14.65,55.51,3.17,8.51,13.63,71.7,16.74,71.76a53.47,53.47,0,0,0,8.68,3.1c3.11.88,7.2,1.88,12.2,2.82,10.65,2,25.67,3.75,45.85,3.75,36.87,0,46.22-10.5,46.22-10.5,2,0-20.51-50.83-32.28-94.49,12.23,7.13,25.23,13.94,26.62,14.78,6.17,3.76,10.51,5.31,13.52,5.49h0a2.66,2.66,0,0,0,.41,0,5.77,5.77,0,0,0,4-1.19c2.78-1.46,6.57-4.67,10.42-11.75,5.07-9.34,11.08-28.22,16.26-40.82,2.86-7,5.07-14.59,8-20.88C1318.84,968.53,1311.71,960.91,1304.28,959.48Z"/><path class="cls-50" d="M1184.38,1061.86c7.36,30.58-6.65,50.09-16.75,59.44a53.47,53.47,0,0,1-8.68-3.1c-3.11-.06-13.57-63.25-16.74-71.76-8.84-23.72-13.17-41.74-14.65-55.51.8-.94,1.27-1.43,1.27-1.43S1173.45,1016.53,1184.38,1061.86Z"/><path class="cls-51" d="M1173.79,928.7s-4.71,10.67-12.69,10.77-19-10.61-19-10.61Z"/><path class="cls-5" d="M1174.38,928.16c-1.65,1.65-5.73,3.93-9.16,5.44a12.87,12.87,0,0,1-9,.19c-4.83-1.52-12.16-3.9-14.13-4.93-4.66-2.43-5.72-7.35-7.76-14.19-2.42-8.1-4.94-14.46-5.29-19.13-.42-5.59,2.27-8.76,12-9.63,17.78-1.58,26.59,3,28.54,9.08q.78,2.46,1.46,4.68C1176.8,918.7,1177.1,925.45,1174.38,928.16Z"/><path class="cls-48" d="M1170.22,897.24s-4.16-4.39-9.3-2.67-4.43,6.51-14.21,5.74-13.29-5.29-14.4-3,1.47,15.65,1.47,15.65-31-43.89,8-43.89c0,0,39.56-2.42,32.19,42.19Z"/><path class="cls-5" d="M1252.24,938.81l0,0S1252.24,938.81,1252.24,938.81Z"/><path class="cls-52" d="M1256.46,876.1c.14-.73.24-1.21.24-1.21A3.18,3.18,0,0,0,1256.46,876.1Z"/><polygon class="cls-48" points="1318.53 1010.18 1312.14 1009.22 1330.07 907.56 1330.07 907.56 1318.53 1010.18"/><path class="cls-5" d="M1309.61,958.06s5.9,5.85,6.89,2.64,8.47-6.89,9-8.39-8.61-2.15-10-2.19S1308.66,956,1309.61,958.06Z"/><path class="cls-45" d="M1159,955.78c.52.14,7.41-1.72,16.8-.6,0,0,.7,8.49-1.73,9.18s-7.54.11-8.61,0S1159,955.78,1159,955.78Z"/><path class="cls-45" d="M1165.43,964.36s28.44,119.44,36,127,13.51,10,13.51,10,6-7.21,5.87-10.67S1174,964.36,1174,964.36Z"/><path class="cls-5" d="M1205.27,1080.92s19.33,6.26,25.15,6.49,12.66-9.71,10.39-12.64c-.66-.84-9.1,3-11.5,1.73-3.65-2-8.33-.48-11.26-.13s-14.18-6-14.18-6Z"/><path class="cls-49" d="M1212.05,1070.35c-31.42-22.2-53.49-33.38-60.4-36.68,1.92-16.41,1.06-42.52-6.1-86.65,0,0-30.49,3.38-33.75,14-4.7,15.36,6.36,58.12,15.52,92.33l.36.21a11.65,11.65,0,0,0,2.93,3.36c13,10.43,81.71,30.45,81.71,30.45C1217.3,1080.18,1212.05,1070.35,1212.05,1070.35Z"/><polygon class="cls-16" points="1226.09 1073.41 1174.52 1058.07 1172.89 1065.45 1228.12 1081 1226.09 1073.41"/><polygon class="cls-18" points="1252.16 1053.52 1226.09 1073.41 1228.12 1081 1258.13 1060.52 1252.16 1053.52"/><polygon class="cls-48" points="1228.7 1083.18 1169.87 1065.23 1170.06 1063.71 1228.12 1081 1228.7 1083.18"/><polygon class="cls-48" points="1228.7 1083.18 1262.01 1060.05 1260.66 1058.67 1228.12 1081 1228.7 1083.18"/><path class="cls-45" d="M1159,955.78s-13.48-14-14.58-13.07-2.49,4-1.84,4.88,18.06,10.7,18.06,10.7Z"/><path class="cls-45" d="M1175.77,955.18s2.7-13.95,3.15-13.41,4.79,4.38,4.95,5.35-5.43,8.84-8,9.44S1175.77,955.18,1175.77,955.18Z"/></g><g id="CLK"><circle class="cls-53" cx="2216.88" cy="824.75" r="86.06"/><circle class="cls-6" cx="2216.02" cy="824.27" r="67.53"/><line class="cls-54" x1="2216.02" y1="824.27" x2="2216.02" y2="756.74"/></g></g></svg>