<?xml version="1.0" encoding="utf-8"?>
<!-- Generator: Adobe Illustrator 25.2.0, SVG Export Plug-In . SVG Version: 6.00 Build 0)  -->
<svg version="1.1" id="Layer_1" xmlns="http://www.w3.org/2000/svg" xmlns:xlink="http://www.w3.org/1999/xlink" x="0px" y="0px"
	 viewBox="0 0 1017.2 1017.2" style="enable-background:new 0 0 1017.2 1017.2;" xml:space="preserve">
<style type="text/css">
	.st0{fill:url(#SVGID_1_);}
</style>
<linearGradient id="SVGID_1_" gradientUnits="userSpaceOnUse" x1="110.5368" y1="362.9992" x2="904.5368" y2="667.9992">
	<stop  offset="1.758171e-06" style="stop-color:#F687FF"/>
	<stop  offset="1" style="stop-color:#409CFE"/>
</linearGradient>
<path class="st0" d="M110.5,439.2h25.8c1.3,0,2.3,1,2.3,2.3v76.6c0,1.3,1,2.3,2.3,2.3h66.7c1.3,0,2.3-1,2.3-2.3l0,0v-76.6
	c0-1.3,1-2.3,2.3-2.3h25.9c1.3,0,2.3,1,2.3,2.3v94.9c0,1.3-1,2.3-2.3,2.3H110.5c-1.3,0-2.3-1-2.3-2.3v-94.9
	C108.3,440.2,109.3,439.2,110.5,439.2z M277,439.3h18.3c1.4,0,2.5,1.1,2.5,2.4v0v76.5c0,1.3,1.1,2.4,2.4,2.4l0,0H397
	c1.4,0,2.5,1.1,2.5,2.5l0,0v13.1c0,1.4-1.1,2.5-2.4,2.5h0H277c-1.3,0-2.4-1.1-2.4-2.5v-94.5C274.6,440.4,275.6,439.3,277,439.3
	C277,439.3,277,439.3,277,439.3z M432,439.3h18.3c1.4,0,2.5,1.1,2.5,2.4v0v76.5c0,1.3,1.1,2.4,2.4,2.4l0,0H552
	c1.4,0,2.5,1.1,2.5,2.5l0,0v13.1c0,1.4-1.1,2.5-2.5,2.5l0,0H432c-1.3,0-2.4-1.1-2.4-2.5v-94.5C429.6,440.4,430.6,439.3,432,439.3
	C432,439.3,432,439.3,432,439.3z M703.2,437.3c-13,0-24.8,4.2-27.5,5.6c-0.4,0.2-0.9,0.3-1.3,0.3l-1.2-0.1c-0.4,0-0.7-0.1-1.1-0.3
	c-2.4-1.3-13.7-6.6-35.8-6.6c-25.1,0-59.8,18.8-59.8,59.8s27.5,43.1,30,43.1s27.4,1.1,27.4-34.9c0-27.5-16.5-32.9-24.3-33.9
	c-1.4-0.2-2.4-1.5-2.2-2.9c0.1-0.5,0.2-0.9,0.5-1.3c3.4-4.4,9.5-8,20.9-10.9c10.2-2.7,20.4-0.4,25.6,1.3c1.4,0.4,2.1,1.9,1.7,3.3
	c-0.1,0.3-0.2,0.5-0.4,0.8c-3.5,4.7-9.8,15.7-9.8,34.2c0,25.7,9.7,44.4,29.7,44.4s28.9-25.5,28.9-43.1c0-14.1-8-30-11.1-36.2
	c-0.7-1.3-0.2-2.8,1.1-3.5c0.2-0.1,0.5-0.2,0.7-0.2c2.9-0.4,5.8-0.6,8.7-0.5c12,0,28.1,10.8,28.1,33.9c0,18.3-9.5,32.6-13.4,37.8
	c-0.9,1.2-0.6,2.8,0.5,3.7c0,0,0,0,0,0l11.4,8.3c1,0.7,2.3,0.7,3.2-0.1c5.2-4.3,20.8-20,20.8-52.7
	C754.5,447,718.1,437.3,703.2,437.3z M612.6,504.1c0.7,9.3-2.3,17.1-6.5,17.4s-8.3-7-9-16.3s2.3-17.1,6.5-17.4
	S611.9,494.8,612.6,504.1z M674.9,520.5c-4.6,0-9.5-11-9.5-24.5s4.9-24.5,9.5-24.5s9.5,11,9.5,24.5S679.5,520.5,674.9,520.5
	L674.9,520.5z M803.5,465.6c0,0,2.9-11.4,11.4-11.4s13,5.1,13.9,11.1c0,0.2,0,0.4,0,0.6v68.3c0,1.9,1.6,3.5,3.5,3.5l0,0h14.9
	c1.9,0,3.5-1.6,3.5-3.5l0,0v-67.9c0-0.5,0.1-1,0.3-1.5c1.1-2.4,5.3-9.6,14-9.6c10.5,0,16.5,9.3,16.6,10.4s3.8,9.6,3.8,27.4
	s-6.5,42.3-14.2,47.5s-16.8,8.3-20,8.3h-55.5c0,0-23.3-2-23.3,24v6.5c0,1.9,1.6,3.5,3.5,3.5l0,0h15.3c1.6,0,3.1-1.1,3.4-2.7
	c1.1-4.8,4.2-14.5,11.8-14.5h52.1c0.3,0,2.8-0.5,3.1-0.6c4-1.1,32.2-9.1,40.4-35.1c8.3-26.2,6.8-43,6.6-44.9c0-0.1,0-0.2,0-0.4
	c0-3.2-0.6-47.3-41.5-47.4H867c-1.4,0.1-15,1-22.9,7.6c-1.3,1.1-3.2,1.2-4.6,0.1c-3.5-2.9-11.2-7.7-24.3-7.7
	c-18.9,0-34.5,14.9-34.5,28.2c0,11.4,0.3,55.9,0.3,68.7c0,1.9,1.6,3.5,3.5,3.5H800c1.9,0,3.5-1.6,3.5-3.5l0,0L803.5,465.6
	 M108.6,582v-29.1H121c1.3,0,2.5,0.3,3.7,0.8c1.1,0.5,2.1,1.3,2.9,2.2c0.8,0.9,1.5,2,1.9,3.1c0.5,1.1,0.7,2.3,0.7,3.5
	c0,2.5-0.9,4.8-2.5,6.7c-0.8,0.9-1.8,1.6-2.9,2.2c-1.1,0.6-2.4,0.8-3.7,0.8h-6.9v9.8H108.6z M114.3,567.3h6.6c1,0,2-0.5,2.6-1.3
	c0.7-1,1.1-2.2,1-3.4c0-0.7-0.1-1.4-0.3-2c-0.2-0.5-0.5-1.1-0.9-1.5c-0.3-0.4-0.8-0.7-1.2-0.9c-0.5-0.2-1-0.3-1.4-0.3h-6.3
	L114.3,567.3z M202,552.9h5l11.1,29.1h-5.8l-2.7-7.2h-10.2l-2.7,7.2h-5.8L202,552.9z M208.5,570.7l-4-11.4l-4.2,11.4H208.5z
	 M301.5,557.8h-9.3V582h-5.6v-24.2h-9.3v-5h24.2L301.5,557.8z M388.3,557.8H379V582h-5.6v-24.2h-9.3v-5h24.2L388.3,557.8z
	 M458.8,552.9h5l11,29.1H469l-2.7-7.2h-10.1l-2.7,7.2h-5.8L458.8,552.9z M465.3,570.7l-4-11.4l-4.2,11.4H465.3z M539.5,582v-29.1
	h12.9c1.3,0,2.5,0.3,3.7,0.8c1.1,0.5,2.1,1.3,2.9,2.2c0.8,0.9,1.5,2,1.9,3.1c0.5,1.1,0.7,2.3,0.7,3.5c0,1.8-0.5,3.6-1.4,5.1
	c-0.9,1.5-2.2,2.7-3.8,3.3l6.7,11h-6.3l-5.9-9.8h-5.6v9.8H539.5z M545.1,567.3h7.1c0.5,0,1-0.1,1.5-0.4c0.5-0.2,0.8-0.6,1.2-1
	c0.3-0.4,0.6-1,0.8-1.5c0.2-0.6,0.3-1.2,0.3-1.8c0-0.6-0.1-1.3-0.3-1.9c-0.2-0.5-0.5-1.1-0.9-1.5c-0.4-0.4-0.8-0.8-1.3-1
	c-0.5-0.2-0.9-0.3-1.5-0.3h-6.8L545.1,567.3z M635.9,552.9h5L652,582h-5.8l-2.7-7.2h-10.2l-2.7,7.2h-5.8L635.9,552.9z M642.5,570.7
	l-4-11.4l-4.2,11.4H642.5z M716.6,582v-29.1h5.7V582H716.6z M360.2,448.3h-3.4c-0.3-1.3-0.8-2.6-1.6-3.8l2.4-2.4
	c0.4-0.4,0.4-1,0-1.4l-2.9-2.9c-0.4-0.4-1-0.4-1.4,0l-2.4,2.4c-1.2-0.7-2.4-1.3-3.8-1.6v-3.4c0-0.6-0.4-1-1-1h-4c-0.6,0-1,0.4-1,1
	v3.4c-1.3,0.3-2.6,0.8-3.8,1.6l-2.4-2.4c-0.4-0.4-1-0.4-1.4,0l-2.9,2.9c-0.4,0.4-0.4,1,0,1.4l2.4,2.4c-0.7,1.2-1.3,2.5-1.6,3.8h-3.4
	c-0.6,0-1,0.4-1,1v4c0,0.6,0.4,1,1,1h3.4c0.3,1.3,0.8,2.6,1.6,3.8l-2.4,2.4c-0.4,0.4-0.4,1,0,1.4l2.9,2.9c0.4,0.4,1,0.4,1.4,0
	l2.4-2.4c1.2,0.7,2.5,1.3,3.8,1.6v3.4c0,0.6,0.4,1,1,1h4c0.6,0,1-0.4,1-1v-3.4c1.3-0.3,2.6-0.8,3.8-1.6l2.4,2.4c0.4,0.4,1,0.4,1.4,0
	l2.9-2.9c0.4-0.4,0.4-1,0-1.4l-2.4-2.4c0.7-1.2,1.3-2.4,1.6-3.8h3.4c0.6,0,1-0.4,1-1v-4C361.2,448.7,360.8,448.3,360.2,448.3
	C360.2,448.3,360.2,448.3,360.2,448.3z M344.2,458.3c-4,0-7.2-3.2-7.2-7.2c0-4,3.2-7.2,7.2-7.2c4,0,7.2,3.2,7.2,7.2c0,0,0,0,0,0
	C351.4,455,348.2,458.3,344.2,458.3z"/>
</svg>
