<svg id="Layer_1" data-name="Layer 1" xmlns="http://www.w3.org/2000/svg" xmlns:xlink="http://www.w3.org/1999/xlink" viewBox="0 0 825 171"><defs><style>.cls-1{fill:url(#linear-gradient);}</style><linearGradient id="linear-gradient" x1="16.74" y1="407.81" x2="810.74" y2="102.81" gradientTransform="matrix(1, 0, 0, -1, 0, 348)" gradientUnits="userSpaceOnUse"><stop offset="0" stop-color="#f687ff"/><stop offset="1" stop-color="#409cfe"/></linearGradient></defs><path class="cls-1" d="M16.7,16.4H42.5a2.26,2.26,0,0,1,2.3,2.3V95.3a2.26,2.26,0,0,0,2.3,2.3h66.7a2.26,2.26,0,0,0,2.3-2.3h0V18.7a2.26,2.26,0,0,1,2.3-2.3h25.9a2.26,2.26,0,0,1,2.3,2.3v94.9a2.26,2.26,0,0,1-2.3,2.3H16.7a2.26,2.26,0,0,1-2.3-2.3V18.7A2.39,2.39,0,0,1,16.7,16.4Zm166.5.1h18.3a2.46,2.46,0,0,1,2.5,2.4h0V95.4a2.43,2.43,0,0,0,2.4,2.4h96.8a2.48,2.48,0,0,1,2.5,2.5h0v13.1a2.46,2.46,0,0,1-2.4,2.5H183.2a2.46,2.46,0,0,1-2.4-2.5V18.9a2.37,2.37,0,0,1,2.4-2.4Zm155,0h18.3a2.46,2.46,0,0,1,2.5,2.4h0V95.4a2.43,2.43,0,0,0,2.4,2.4h96.8a2.48,2.48,0,0,1,2.5,2.5h0v13.1a2.48,2.48,0,0,1-2.5,2.5h-120a2.46,2.46,0,0,1-2.4-2.5V18.9a2.37,2.37,0,0,1,2.4-2.4Zm271.2-2c-13,0-24.8,4.2-27.5,5.6a3.08,3.08,0,0,1-1.3.3l-1.2-.1a2.28,2.28,0,0,1-1.1-.3c-2.4-1.3-13.7-6.6-35.8-6.6-25.1,0-59.8,18.8-59.8,59.8s27.5,43.1,30,43.1,27.4,1.1,27.4-34.9c0-27.5-16.5-32.9-24.3-33.9a2.58,2.58,0,0,1-2.2-2.9,3,3,0,0,1,.5-1.3c3.4-4.4,9.5-8,20.9-10.9,10.2-2.7,20.4-.4,25.6,1.3a2.62,2.62,0,0,1,1.7,3.3,3,3,0,0,1-.4.8c-3.5,4.7-9.8,15.7-9.8,34.2,0,25.7,9.7,44.4,29.7,44.4s28.9-25.5,28.9-43.1c0-14.1-8-30-11.1-36.2a2.54,2.54,0,0,1,1.1-3.5,1.85,1.85,0,0,1,.7-.2,50.8,50.8,0,0,1,8.7-.5c12,0,28.1,10.8,28.1,33.9,0,18.3-9.5,32.6-13.4,37.8a2.68,2.68,0,0,0,.5,3.7h0l11.4,8.3a2.56,2.56,0,0,0,3.2-.1c5.2-4.3,20.8-20,20.8-52.7C660.7,24.2,624.3,14.5,609.4,14.5ZM518.8,81.3c.7,9.3-2.3,17.1-6.5,17.4s-8.3-7-9-16.3,2.3-17.1,6.5-17.4S518.1,72,518.8,81.3Zm62.3,16.4c-4.6,0-9.5-11-9.5-24.5s4.9-24.5,9.5-24.5,9.5,11,9.5,24.5-4.9,24.5-9.5,24.5ZM709.7,42.8s2.9-11.4,11.4-11.4,13,5.1,13.9,11.1v68.9a3.54,3.54,0,0,0,3.5,3.5h14.9a3.54,3.54,0,0,0,3.5-3.5h0V43.5a4,4,0,0,1,.3-1.5c1.1-2.4,5.3-9.6,14-9.6,10.5,0,16.5,9.3,16.6,10.4s3.8,9.6,3.8,27.4-6.5,42.3-14.2,47.5-16.8,8.3-20,8.3H701.9s-23.3-2-23.3,24v6.5a3.54,3.54,0,0,0,3.5,3.5h15.3a3.43,3.43,0,0,0,3.4-2.7c1.1-4.8,4.2-14.5,11.8-14.5h52.1c.3,0,2.8-.5,3.1-.6,4-1.1,32.2-9.1,40.4-35.1,8.3-26.2,6.8-43,6.6-44.9v-.4c0-3.2-.6-47.3-41.5-47.4h-.1c-1.4.1-15,1-22.9,7.6a3.62,3.62,0,0,1-4.6.1c-3.5-2.9-11.2-7.7-24.3-7.7-18.9,0-34.5,14.9-34.5,28.2,0,11.4.3,55.9.3,68.7a3.54,3.54,0,0,0,3.5,3.5h15.5a3.54,3.54,0,0,0,3.5-3.5h0V42.8M14.8,159.2V130.1H27.2a9.46,9.46,0,0,1,3.7.8,8.93,8.93,0,0,1,2.9,2.2,10,10,0,0,1,1.9,3.1,8.42,8.42,0,0,1,.7,3.5,10.3,10.3,0,0,1-2.5,6.7,10.59,10.59,0,0,1-2.9,2.2,7.71,7.71,0,0,1-3.7.8H20.4v9.8Zm5.7-14.7h6.6a3.32,3.32,0,0,0,2.6-1.3,5.24,5.24,0,0,0,1-3.4,6.45,6.45,0,0,0-.3-2,4.62,4.62,0,0,0-.9-1.5,3.45,3.45,0,0,0-1.2-.9,3.93,3.93,0,0,0-1.4-.3H20.6Zm87.7-14.4h5l11.1,29.1h-5.8l-2.7-7.2H105.6l-2.7,7.2H97.1Zm6.5,17.8-4-11.4-4.2,11.4Zm93-12.9h-9.3v24.2h-5.6V135h-9.3v-5h24.2Zm86.8,0h-9.3v24.2h-5.6V135h-9.3v-5h24.2Zm70.5-4.9h5l11,29.1h-5.8l-2.7-7.2H362.4l-2.7,7.2h-5.8Zm6.5,17.8-4-11.4-4.2,11.4Zm74.2,11.3V130.1h12.9a9.46,9.46,0,0,1,3.7.8,8.93,8.93,0,0,1,2.9,2.2,10,10,0,0,1,1.9,3.1,8.42,8.42,0,0,1,.7,3.5,10,10,0,0,1-1.4,5.1,7.63,7.63,0,0,1-3.8,3.3l6.7,11H463l-5.9-9.8h-5.6v9.8h-5.8Zm5.6-14.7h7.1a2.82,2.82,0,0,0,1.5-.4,3.78,3.78,0,0,0,1.2-1,7.14,7.14,0,0,0,.8-1.5,5.66,5.66,0,0,0,.3-1.8,6.28,6.28,0,0,0-.3-1.9,4.62,4.62,0,0,0-.9-1.5,4.12,4.12,0,0,0-1.3-1,3.65,3.65,0,0,0-1.5-.3h-6.8Zm90.8-14.4h5l11.1,29.1h-5.8l-2.7-7.2H539.5l-2.7,7.2H531Zm6.6,17.8-4-11.4-4.2,11.4Zm74.1,11.3V130.1h5.7v29.1ZM266.4,25.5H263a11.43,11.43,0,0,0-1.6-3.8l2.4-2.4a1,1,0,0,0,0-1.4L260.9,15a1,1,0,0,0-1.4,0l-2.4,2.4a12.78,12.78,0,0,0-3.8-1.6V12.4a.94.94,0,0,0-1-1h-4a.94.94,0,0,0-1,1v3.4a11.43,11.43,0,0,0-3.8,1.6L241.1,15a1,1,0,0,0-1.4,0l-2.9,2.9a1,1,0,0,0,0,1.4l2.4,2.4a14,14,0,0,0-1.6,3.8h-3.4a.94.94,0,0,0-1,1v4a.94.94,0,0,0,1,1h3.4a11.43,11.43,0,0,0,1.6,3.8l-2.4,2.4a1,1,0,0,0,0,1.4l2.9,2.9a1,1,0,0,0,1.4,0l2.4-2.4a14,14,0,0,0,3.8,1.6v3.4a.94.94,0,0,0,1,1h4a.94.94,0,0,0,1-1V41.2a11.43,11.43,0,0,0,3.8-1.6l2.4,2.4a1,1,0,0,0,1.4,0l2.9-2.9a1,1,0,0,0,0-1.4l-2.4-2.4a12.78,12.78,0,0,0,1.6-3.8h3.4a.94.94,0,0,0,1-1v-4a.94.94,0,0,0-1-1Zm-16,10a7.2,7.2,0,1,1,7.2-7.2h0A7.23,7.23,0,0,1,250.4,35.5Z"/></svg>