<svg xmlns="http://www.w3.org/2000/svg" viewBox="0 0 604.51 668.51"><defs><style>.cls-1{fill:#c1c1c1;}</style></defs><g id="Layer_6" data-name="Layer 6"><path class="cls-1" d="M630.52,332.28C575,262.57,497.1,264,492.1,264.15H492s-81.48-3.92-138.85,68.13S326.5,485.72,326.5,485.72s12,29.35,28,50.7,40,72.05,46.7,113.41,30.69,40,30.69,40H551.8s24,1.33,30.68-40,30.69-92.06,46.7-113.41,28-50.7,28-50.7S687.89,404.33,630.52,332.28ZM611.78,519.35c-16.84,22.45-38.37,72.11-38.37,72.11S562,618,556.5,639.16,543.88,659,543.88,659l-.1-134.64c10.71-5.57,52.85-31.9,53.13-92.79s-54.34-85.95-54.34-85.95l-.19,79.31c-1,16.51-20.53,22.81-20.53,22.81H461.93s-20.68-6-20.68-24.68V345.62s-54.71,24-54.71,88.06,53.37,90.73,53.37,90.73V659.17s-8,1.34-13.34-22.68c-3.66-16.48-26.69-74.72-45.37-102.74S315.83,435,369.2,355c0,0,33.35-60,122.75-62.71a208,208,0,0,1,52.77,9.36c82.77,31.15,91.75,99.33,94.28,124.58S628.61,496.9,611.78,519.35Z" transform="translate(-187.02 -133.43)"/><path class="cls-1" d="M543.41,703.2H436.48a2.91,2.91,0,0,0-2.52,1.46l-8.1,9.76a2.91,2.91,0,0,0,0,2.91l8.1,9.77a2.91,2.91,0,0,0,2.52,1.45H543.41a2.91,2.91,0,0,0,2.52-1.45l8.1-9.77a2.91,2.91,0,0,0,0-2.91l-8.1-9.76A2.91,2.91,0,0,0,543.41,703.2Z" transform="translate(-187.02 -133.43)"/><path class="cls-1" d="M535.86,738.35H444a2.47,2.47,0,0,0-2.16,1.25l-7,8.38a2.48,2.48,0,0,0,0,2.5l7,8.39a2.5,2.5,0,0,0,2.16,1.25h91.83a2.52,2.52,0,0,0,2.17-1.25l7-8.39a2.48,2.48,0,0,0,0-2.5l-7-8.38A2.5,2.5,0,0,0,535.86,738.35Z" transform="translate(-187.02 -133.43)"/><path class="cls-1" d="M490,772.58h47.36c0,16.11-21.38,29.36-47.36,29.36s-47.37-13.25-47.37-29.36v-.13Z" transform="translate(-187.02 -133.43)"/><path class="cls-1" d="M504,219V144a6,6,0,0,0-2.59-4.93l-6.69-4.61a6,6,0,0,0-6.8,0l-6.68,4.61a6,6,0,0,0-2.6,4.93v75a6,6,0,0,0,2.6,4.93l6.68,4.61a6,6,0,0,0,6.8,0l6.69-4.61A6,6,0,0,0,504,219Z" transform="translate(-187.02 -133.43)"/><path class="cls-1" d="M272.58,425.68H197.63a6,6,0,0,0-4.94,2.59L188.08,435a6,6,0,0,0,0,6.81l4.61,6.68a6,6,0,0,0,4.94,2.59h74.95a6,6,0,0,0,4.94-2.59l4.6-6.68a6,6,0,0,0,0-6.81l-4.6-6.68A6,6,0,0,0,272.58,425.68Z" transform="translate(-187.02 -133.43)"/><path class="cls-1" d="M780.93,425.68H706a6,6,0,0,0-4.94,2.59L696.43,435a6,6,0,0,0,0,6.81l4.61,6.68A6,6,0,0,0,706,451h74.95a6,6,0,0,0,4.93-2.59l4.61-6.68a6,6,0,0,0,0-6.81l-4.61-6.68A6,6,0,0,0,780.93,425.68Z" transform="translate(-187.02 -133.43)"/><path class="cls-1" d="M704.2,633.35l-53-53a6,6,0,0,0-5.32-1.65l-8,1.46a6,6,0,0,0-4.81,4.82l-1.46,8a6,6,0,0,0,1.65,5.32l53,53a6,6,0,0,0,5.32,1.66l8-1.47a6,6,0,0,0,4.81-4.81l1.47-8A6,6,0,0,0,704.2,633.35Z" transform="translate(-187.02 -133.43)"/><path class="cls-1" d="M686.27,221.43l-53,53a6,6,0,0,0-1.65,5.32l1.46,8a6,6,0,0,0,4.81,4.81l8,1.47a6,6,0,0,0,5.32-1.66l53-53a6,6,0,0,0,1.66-5.32l-1.47-8a6,6,0,0,0-4.81-4.81l-8-1.47A6,6,0,0,0,686.27,221.43Z" transform="translate(-187.02 -133.43)"/><path class="cls-1" d="M345.29,274.43l-53-53a6,6,0,0,0-5.32-1.66l-8,1.47a6,6,0,0,0-4.81,4.81l-1.47,8a6,6,0,0,0,1.66,5.32l53,53a6,6,0,0,0,5.32,1.66l8-1.47a6,6,0,0,0,4.82-4.81l1.46-8A6,6,0,0,0,345.29,274.43Z" transform="translate(-187.02 -133.43)"/><path class="cls-1" d="M327.36,580.34l-53,53a6,6,0,0,0-1.66,5.32l1.47,8a6,6,0,0,0,4.81,4.81l8,1.47a6,6,0,0,0,5.32-1.66l53-53a6,6,0,0,0,1.65-5.32l-1.46-8a6,6,0,0,0-4.82-4.82l-8-1.46A6,6,0,0,0,327.36,580.34Z" transform="translate(-187.02 -133.43)"/></g></svg>